<?xml version="1.0" encoding="UTF-8"?>
<svg id="Warstwa_2" data-name="Warstwa 2" xmlns="http://www.w3.org/2000/svg" viewBox="0 0 194.36 80.4">
  <defs>
    <style>
      .cls-1 {
        fill: #fff;
      }
    </style>
  </defs>
  <g id="Warstwa_1-2" data-name="Warstwa 1">
    <g>
      <g>
        <path d="m40.39.1l-14.56,76.06h-11.31L0,.1h11.41l8.49,52.08c.06,1.49.16,3.66.29,6.5-.03-1.49.06-3.66.29-6.5L29.03.1h11.36Z"/>
        <path d="m58.35,76.06h-11.36V14.54h11.36v61.52Z"/>
        <path d="m104.07,69.12c0,4.63-2.3,6.94-6.89,6.94h-22.86c-4.56,0-6.84-2.31-6.84-6.94v-18.11h11.36v15.48h13.88v-14.9l-22.77-21.55c-1.65-1.59-2.48-3.61-2.48-6.07V7.09c0-4.66,2.28-6.99,6.84-6.99h22.86c4.6,0,6.89,2.3,6.89,6.89v16.99h-11.36v-14.32h-13.88v13.74l22.77,21.45c1.65,1.55,2.48,3.61,2.48,6.16v18.11Z"/>
        <path d="m151.59,76.06h-11.26l-2.28-14.42h-14.22l-2.28,14.42h-11.21v-.19L125.04,0h11.94l14.61,76.06Zm-15.14-24.17l-5.53-34.27-5.58,34.27h11.12Z"/>
        <path d="m194.36,69.12c0,4.63-2.3,6.94-6.89,6.94h-22.86c-4.56,0-6.85-2.31-6.85-6.94v-18.11h11.36v15.48h13.88v-14.9l-22.77-21.55c-1.65-1.59-2.48-3.61-2.48-6.07V7.09c0-4.66,2.29-6.99,6.85-6.99h22.86c4.6,0,6.89,2.3,6.89,6.89v16.99h-11.36v-14.32h-13.88v13.74l22.77,21.45c1.65,1.55,2.48,3.61,2.48,6.16v18.11Z"/>
      </g>
      <polygon points="52.67 .1 46.99 14.54 58.35 14.54 52.67 .1"/>
      <path class="cls-1" d="m48.06,14.54c2.97-.17,5.94-.17,8.91,0-2.97.17-5.94.17-8.91,0h0Z"/>
      <path class="cls-1" d="m48.45,13.48c1.25-3.82,2.65-7.58,4.22-11.28-1.25,3.82-2.65,7.58-4.22,11.28h0Z"/>
      <path class="cls-1" d="m48.06,74.16c-.33-18.62-.33-39.09,0-57.71.33,18.62.33,39.09,0,57.71h0Z"/>
      <ellipse cx="103.25" cy="79.15" rx="88.9" ry="1.26"/>
    </g>
  </g>
</svg>